<svg xmlns="http://www.w3.org/2000/svg" viewBox="0 0 23.25 23.25"><defs><style>.cls-1{fill:#fff;}.cls-2{fill:#3e3935;}</style></defs><title>glyph-expand</title><g id="superlayer"><path class="cls-1" d="M23.25,11.63A11.63,11.63,0,1,1,11.63,0,11.62,11.62,0,0,1,23.25,11.63Z"/><path class="cls-2" d="M23.25,11.63A11.63,11.63,0,1,1,11.63,0,11.62,11.62,0,0,1,23.25,11.63Zm-4.87-1.31a.56.56,0,0,0-.56-.56H13.5V5.44a.56.56,0,0,0-.56-.56H10.31a.56.56,0,0,0-.56.56V9.75H5.44a.56.56,0,0,0-.56.56v2.63a.56.56,0,0,0,.56.56H9.75v4.31a.56.56,0,0,0,.56.56h2.63a.56.56,0,0,0,.56-.56V13.5h4.31a.56.56,0,0,0,.56-.56Z"/></g></svg>